<mxfile host="app.diagrams.net" modified="2023-11-26T05:43:42.043Z" agent="Mozilla/5.0 (Macintosh; Intel Mac OS X 10_15_7) AppleWebKit/537.36 (KHTML, like Gecko) Chrome/119.0.0.0 Safari/537.36" etag="fxoDVr0P3g7UZzKNFeV-" version="22.1.4" type="github">
  <diagram id="R2lEEEUBdFMjLlhIrx00" name="Page-1">
    <mxGraphModel dx="1406" dy="900" grid="1" gridSize="10" guides="1" tooltips="1" connect="1" arrows="1" fold="1" page="1" pageScale="1" pageWidth="1654" pageHeight="1169" math="0" shadow="0" extFonts="Permanent Marker^https://fonts.googleapis.com/css?family=Permanent+Marker">
      <root>
        <mxCell id="0" />
        <mxCell id="1" parent="0" />
        <mxCell id="cdsCty-ngPJyCLLbnnnI-5" value="relationships" style="shape=rhombus;perimeter=rhombusPerimeter;whiteSpace=wrap;html=1;align=center;" parent="1" vertex="1">
          <mxGeometry x="1010" y="400" width="120" height="60" as="geometry" />
        </mxCell>
        <mxCell id="cdsCty-ngPJyCLLbnnnI-15" value="relation_description TEXT" style="rounded=1;arcSize=10;whiteSpace=wrap;html=1;align=center;" parent="1" vertex="1">
          <mxGeometry x="1150" y="350" width="130" height="40" as="geometry" />
        </mxCell>
        <mxCell id="cdsCty-ngPJyCLLbnnnI-17" value="" style="endArrow=none;dashed=1;html=1;dashPattern=1 3;strokeWidth=2;rounded=0;entryX=0.5;entryY=1;entryDx=0;entryDy=0;exitX=1;exitY=0.5;exitDx=0;exitDy=0;" parent="1" source="cdsCty-ngPJyCLLbnnnI-5" target="cdsCty-ngPJyCLLbnnnI-15" edge="1">
          <mxGeometry width="50" height="50" relative="1" as="geometry">
            <mxPoint x="700" y="575" as="sourcePoint" />
            <mxPoint x="750" y="525" as="targetPoint" />
          </mxGeometry>
        </mxCell>
        <mxCell id="cdsCty-ngPJyCLLbnnnI-18" value="victim_info" style="shape=ext;margin=3;double=1;whiteSpace=wrap;html=1;align=center;container=1;dropTarget=0;snapToPoint=0;backgroundOutline=0;metaEdit=0;moveCells=0;treeMoving=0;" parent="1" vertex="1">
          <mxGeometry x="1120" y="740" width="100" height="60" as="geometry" />
        </mxCell>
        <mxCell id="cdsCty-ngPJyCLLbnnnI-19" value="inhabitant" style="swimlane;childLayout=stackLayout;horizontal=1;startSize=50;horizontalStack=0;rounded=1;fontSize=14;fontStyle=0;strokeWidth=2;resizeParent=0;resizeLast=1;shadow=0;dashed=0;align=center;arcSize=4;whiteSpace=wrap;html=1;container=1;swimlaneBody=1;" parent="1" vertex="1">
          <mxGeometry x="770" y="370" width="160" height="220" as="geometry">
            <mxRectangle x="210" y="400" width="100" height="50" as="alternateBounds" />
          </mxGeometry>
        </mxCell>
        <mxCell id="cdsCty-ngPJyCLLbnnnI-20" value="inhabitant_id INT&lt;br&gt;&lt;br&gt;name TEXT&lt;br&gt;&lt;br style=&quot;border-color: var(--border-color); padding: 0px; margin: 0px;&quot;&gt;dead TINYINT(1)&lt;br&gt;&lt;br style=&quot;border-color: var(--border-color); padding: 0px; margin: 0px;&quot;&gt;gender TEXT&lt;br&gt;&lt;br style=&quot;border-color: var(--border-color); padding: 0px; margin: 0px;&quot;&gt;custody TINYINT(1)&lt;br&gt;&lt;br&gt;suspect TINYINT(1)" style="align=left;strokeColor=none;fillColor=none;spacingLeft=4;fontSize=12;verticalAlign=top;resizable=0;rotatable=0;part=1;html=1;" parent="cdsCty-ngPJyCLLbnnnI-19" vertex="1">
          <mxGeometry y="50" width="160" height="170" as="geometry" />
        </mxCell>
        <mxCell id="TqhwZRV8JNRU5DN2LlRJ-2" value="&lt;span style=&quot;border-bottom: 1px dotted&quot;&gt;day_of_death DATE&lt;/span&gt;" style="ellipse;whiteSpace=wrap;html=1;align=center;" parent="1" vertex="1">
          <mxGeometry x="1330" y="710" width="110" height="40" as="geometry" />
        </mxCell>
        <mxCell id="TqhwZRV8JNRU5DN2LlRJ-4" value="" style="endArrow=none;html=1;rounded=0;entryX=0;entryY=0.5;entryDx=0;entryDy=0;exitX=1;exitY=0;exitDx=0;exitDy=0;" parent="1" source="cdsCty-ngPJyCLLbnnnI-18" target="TqhwZRV8JNRU5DN2LlRJ-2" edge="1">
          <mxGeometry relative="1" as="geometry">
            <mxPoint x="340" y="540" as="sourcePoint" />
            <mxPoint x="500" y="540" as="targetPoint" />
          </mxGeometry>
        </mxCell>
        <mxCell id="TqhwZRV8JNRU5DN2LlRJ-5" value="&lt;span style=&quot;border-bottom: 1px dotted&quot;&gt;min_of_death TIME&lt;/span&gt;" style="ellipse;whiteSpace=wrap;html=1;align=center;" parent="1" vertex="1">
          <mxGeometry x="1310" y="800" width="110" height="40" as="geometry" />
        </mxCell>
        <mxCell id="TqhwZRV8JNRU5DN2LlRJ-6" value="" style="endArrow=none;html=1;rounded=0;entryX=0;entryY=0.5;entryDx=0;entryDy=0;exitX=1;exitY=1;exitDx=0;exitDy=0;" parent="1" source="cdsCty-ngPJyCLLbnnnI-18" target="TqhwZRV8JNRU5DN2LlRJ-5" edge="1">
          <mxGeometry relative="1" as="geometry">
            <mxPoint x="340" y="540" as="sourcePoint" />
            <mxPoint x="500" y="540" as="targetPoint" />
            <Array as="points" />
          </mxGeometry>
        </mxCell>
        <mxCell id="TqhwZRV8JNRU5DN2LlRJ-23" style="edgeStyle=orthogonalEdgeStyle;rounded=0;orthogonalLoop=1;jettySize=auto;html=1;exitX=0.5;exitY=1;exitDx=0;exitDy=0;entryX=0.5;entryY=0;entryDx=0;entryDy=0;" parent="1" source="TqhwZRV8JNRU5DN2LlRJ-7" target="cdsCty-ngPJyCLLbnnnI-18" edge="1">
          <mxGeometry relative="1" as="geometry" />
        </mxCell>
        <mxCell id="TqhwZRV8JNRU5DN2LlRJ-7" value="victim" style="shape=rhombus;double=1;perimeter=rhombusPerimeter;whiteSpace=wrap;html=1;align=center;" parent="1" vertex="1">
          <mxGeometry x="1110" y="540" width="120" height="60" as="geometry" />
        </mxCell>
        <mxCell id="TqhwZRV8JNRU5DN2LlRJ-13" value="vertex" style="swimlane;childLayout=stackLayout;horizontal=1;startSize=30;horizontalStack=0;rounded=1;fontSize=14;fontStyle=0;strokeWidth=2;resizeParent=0;resizeLast=1;shadow=0;dashed=0;align=center;arcSize=4;whiteSpace=wrap;html=1;" parent="1" vertex="1">
          <mxGeometry x="680" y="910" width="160" height="90" as="geometry" />
        </mxCell>
        <mxCell id="TqhwZRV8JNRU5DN2LlRJ-14" value="vertex_id INT&lt;br&gt;x INT&lt;br&gt;y INT" style="align=left;strokeColor=none;fillColor=none;spacingLeft=4;fontSize=12;verticalAlign=top;resizable=0;rotatable=0;part=1;html=1;" parent="TqhwZRV8JNRU5DN2LlRJ-13" vertex="1">
          <mxGeometry y="30" width="160" height="60" as="geometry" />
        </mxCell>
        <mxCell id="TqhwZRV8JNRU5DN2LlRJ-24" style="edgeStyle=orthogonalEdgeStyle;rounded=0;orthogonalLoop=1;jettySize=auto;html=1;exitX=0.5;exitY=0;exitDx=0;exitDy=0;entryX=0.5;entryY=1;entryDx=0;entryDy=0;" parent="1" source="TqhwZRV8JNRU5DN2LlRJ-15" target="cdsCty-ngPJyCLLbnnnI-18" edge="1">
          <mxGeometry relative="1" as="geometry" />
        </mxCell>
        <mxCell id="TqhwZRV8JNRU5DN2LlRJ-15" value="place_of_death" style="shape=rhombus;perimeter=rhombusPerimeter;whiteSpace=wrap;html=1;align=center;" parent="1" vertex="1">
          <mxGeometry x="1110" y="925" width="120" height="60" as="geometry" />
        </mxCell>
        <mxCell id="TqhwZRV8JNRU5DN2LlRJ-20" value="" style="endArrow=none;html=1;rounded=0;entryX=0.5;entryY=0;entryDx=0;entryDy=0;exitX=1.013;exitY=0.071;exitDx=0;exitDy=0;exitPerimeter=0;" parent="1" source="cdsCty-ngPJyCLLbnnnI-20" target="cdsCty-ngPJyCLLbnnnI-5" edge="1">
          <mxGeometry relative="1" as="geometry">
            <mxPoint x="350" y="680" as="sourcePoint" />
            <mxPoint x="510" y="680" as="targetPoint" />
          </mxGeometry>
        </mxCell>
        <mxCell id="TqhwZRV8JNRU5DN2LlRJ-21" value="" style="endArrow=none;html=1;rounded=0;entryX=0.5;entryY=1;entryDx=0;entryDy=0;exitX=1.006;exitY=0.194;exitDx=0;exitDy=0;exitPerimeter=0;" parent="1" source="cdsCty-ngPJyCLLbnnnI-20" target="cdsCty-ngPJyCLLbnnnI-5" edge="1">
          <mxGeometry relative="1" as="geometry">
            <mxPoint x="350" y="680" as="sourcePoint" />
            <mxPoint x="510" y="680" as="targetPoint" />
          </mxGeometry>
        </mxCell>
        <mxCell id="TqhwZRV8JNRU5DN2LlRJ-22" style="edgeStyle=orthogonalEdgeStyle;rounded=0;orthogonalLoop=1;jettySize=auto;html=1;exitX=0.5;exitY=0;exitDx=0;exitDy=0;entryX=1;entryY=0.441;entryDx=0;entryDy=0;entryPerimeter=0;" parent="1" source="TqhwZRV8JNRU5DN2LlRJ-7" target="cdsCty-ngPJyCLLbnnnI-20" edge="1">
          <mxGeometry relative="1" as="geometry" />
        </mxCell>
        <mxCell id="TqhwZRV8JNRU5DN2LlRJ-25" value="" style="endArrow=none;html=1;rounded=0;entryX=0;entryY=0.5;entryDx=0;entryDy=0;exitX=1;exitY=0.5;exitDx=0;exitDy=0;" parent="1" source="TqhwZRV8JNRU5DN2LlRJ-13" target="TqhwZRV8JNRU5DN2LlRJ-15" edge="1">
          <mxGeometry relative="1" as="geometry">
            <mxPoint x="350" y="680" as="sourcePoint" />
            <mxPoint x="510" y="680" as="targetPoint" />
          </mxGeometry>
        </mxCell>
        <mxCell id="TqhwZRV8JNRU5DN2LlRJ-26" value="edge" style="shape=rhombus;perimeter=rhombusPerimeter;whiteSpace=wrap;html=1;align=center;" parent="1" vertex="1">
          <mxGeometry x="720" y="1060" width="120" height="60" as="geometry" />
        </mxCell>
        <mxCell id="TqhwZRV8JNRU5DN2LlRJ-30" value="" style="endArrow=none;html=1;rounded=0;entryX=0;entryY=0.5;entryDx=0;entryDy=0;exitX=0.362;exitY=1.081;exitDx=0;exitDy=0;exitPerimeter=0;" parent="1" source="TqhwZRV8JNRU5DN2LlRJ-14" target="TqhwZRV8JNRU5DN2LlRJ-26" edge="1">
          <mxGeometry relative="1" as="geometry">
            <mxPoint x="350" y="680" as="sourcePoint" />
            <mxPoint x="510" y="680" as="targetPoint" />
          </mxGeometry>
        </mxCell>
        <mxCell id="TqhwZRV8JNRU5DN2LlRJ-31" value="building" style="swimlane;childLayout=stackLayout;horizontal=1;startSize=25;horizontalStack=0;rounded=1;fontSize=14;fontStyle=0;strokeWidth=2;resizeParent=0;resizeLast=1;shadow=0;dashed=0;align=center;arcSize=4;whiteSpace=wrap;html=1;" parent="1" vertex="1">
          <mxGeometry x="210" y="780" width="160" height="75" as="geometry" />
        </mxCell>
        <mxCell id="TqhwZRV8JNRU5DN2LlRJ-32" value="building_name TEXT&lt;br&gt;lockdown TINYINT(1)" style="align=left;strokeColor=none;fillColor=none;spacingLeft=4;fontSize=12;verticalAlign=top;resizable=0;rotatable=0;part=1;html=1;" parent="TqhwZRV8JNRU5DN2LlRJ-31" vertex="1">
          <mxGeometry y="25" width="160" height="50" as="geometry" />
        </mxCell>
        <mxCell id="QabyjfvCJ1Uz-o_jZM9u-1" style="edgeStyle=orthogonalEdgeStyle;rounded=0;orthogonalLoop=1;jettySize=auto;html=1;exitX=0;exitY=0.5;exitDx=0;exitDy=0;entryX=0.5;entryY=1;entryDx=0;entryDy=0;" parent="1" source="-PaE_k066LT1cp-F2kjS-1" target="TqhwZRV8JNRU5DN2LlRJ-32" edge="1">
          <mxGeometry relative="1" as="geometry" />
        </mxCell>
        <mxCell id="QabyjfvCJ1Uz-o_jZM9u-2" style="edgeStyle=orthogonalEdgeStyle;rounded=0;orthogonalLoop=1;jettySize=auto;html=1;entryX=0;entryY=0.5;entryDx=0;entryDy=0;" parent="1" source="-PaE_k066LT1cp-F2kjS-1" target="TqhwZRV8JNRU5DN2LlRJ-14" edge="1">
          <mxGeometry relative="1" as="geometry" />
        </mxCell>
        <mxCell id="-PaE_k066LT1cp-F2kjS-1" value="location_of_building" style="shape=rhombus;perimeter=rhombusPerimeter;whiteSpace=wrap;html=1;align=center;" parent="1" vertex="1">
          <mxGeometry x="330" y="940" width="150" height="60" as="geometry" />
        </mxCell>
        <mxCell id="-PaE_k066LT1cp-F2kjS-4" value="home_building" style="shape=rhombus;perimeter=rhombusPerimeter;whiteSpace=wrap;html=1;align=center;" parent="1" vertex="1">
          <mxGeometry x="220" y="555" width="120" height="60" as="geometry" />
        </mxCell>
        <mxCell id="-PaE_k066LT1cp-F2kjS-14" value="occupation_info" style="swimlane;childLayout=stackLayout;horizontal=1;startSize=50;horizontalStack=0;rounded=1;fontSize=14;fontStyle=0;strokeWidth=2;resizeParent=0;resizeLast=1;shadow=0;dashed=0;align=center;arcSize=4;whiteSpace=wrap;html=1;" parent="1" vertex="1">
          <mxGeometry x="120" y="370" width="160" height="120" as="geometry" />
        </mxCell>
        <mxCell id="-PaE_k066LT1cp-F2kjS-15" value="occupation_id INT&lt;br&gt;occupation_name TEXT&lt;br&gt;income_level TEXT" style="align=left;strokeColor=none;fillColor=none;spacingLeft=4;fontSize=12;verticalAlign=top;resizable=0;rotatable=0;part=1;html=1;" parent="-PaE_k066LT1cp-F2kjS-14" vertex="1">
          <mxGeometry y="50" width="160" height="70" as="geometry" />
        </mxCell>
        <mxCell id="-PaE_k066LT1cp-F2kjS-20" style="edgeStyle=orthogonalEdgeStyle;rounded=0;orthogonalLoop=1;jettySize=auto;html=1;exitX=0.5;exitY=0;exitDx=0;exitDy=0;entryX=0.25;entryY=1;entryDx=0;entryDy=0;" parent="1" source="-PaE_k066LT1cp-F2kjS-19" target="-PaE_k066LT1cp-F2kjS-15" edge="1">
          <mxGeometry relative="1" as="geometry" />
        </mxCell>
        <mxCell id="-PaE_k066LT1cp-F2kjS-19" value="work_place" style="shape=rhombus;perimeter=rhombusPerimeter;whiteSpace=wrap;html=1;align=center;" parent="1" vertex="1">
          <mxGeometry x="100" y="620" width="120" height="60" as="geometry" />
        </mxCell>
        <mxCell id="-PaE_k066LT1cp-F2kjS-21" value="" style="endArrow=none;html=1;rounded=0;entryX=0;entryY=0.25;entryDx=0;entryDy=0;exitX=0.5;exitY=1;exitDx=0;exitDy=0;" parent="1" source="-PaE_k066LT1cp-F2kjS-19" target="TqhwZRV8JNRU5DN2LlRJ-32" edge="1">
          <mxGeometry relative="1" as="geometry">
            <mxPoint x="430" y="710" as="sourcePoint" />
            <mxPoint x="590" y="710" as="targetPoint" />
            <Array as="points">
              <mxPoint x="160" y="818" />
            </Array>
          </mxGeometry>
        </mxCell>
        <mxCell id="-PaE_k066LT1cp-F2kjS-22" value="occupation" style="shape=rhombus;perimeter=rhombusPerimeter;whiteSpace=wrap;html=1;align=center;" parent="1" vertex="1">
          <mxGeometry x="440" y="371" width="120" height="60" as="geometry" />
        </mxCell>
        <mxCell id="-PaE_k066LT1cp-F2kjS-23" style="edgeStyle=orthogonalEdgeStyle;rounded=0;orthogonalLoop=1;jettySize=auto;html=1;exitX=1;exitY=0.5;exitDx=0;exitDy=0;entryX=-0.002;entryY=0.145;entryDx=0;entryDy=0;entryPerimeter=0;" parent="1" source="-PaE_k066LT1cp-F2kjS-22" target="cdsCty-ngPJyCLLbnnnI-19" edge="1">
          <mxGeometry relative="1" as="geometry" />
        </mxCell>
        <mxCell id="-PaE_k066LT1cp-F2kjS-24" value="" style="endArrow=none;html=1;rounded=0;entryX=0;entryY=0.5;entryDx=0;entryDy=0;exitX=1;exitY=0.25;exitDx=0;exitDy=0;" parent="1" source="-PaE_k066LT1cp-F2kjS-14" target="-PaE_k066LT1cp-F2kjS-22" edge="1">
          <mxGeometry relative="1" as="geometry">
            <mxPoint x="430" y="710" as="sourcePoint" />
            <mxPoint x="590" y="710" as="targetPoint" />
          </mxGeometry>
        </mxCell>
        <mxCell id="-PaE_k066LT1cp-F2kjS-25" value="status" style="swimlane;childLayout=stackLayout;horizontal=1;startSize=50;horizontalStack=0;rounded=1;fontSize=14;fontStyle=0;strokeWidth=2;resizeParent=0;resizeLast=1;shadow=0;dashed=0;align=center;arcSize=4;whiteSpace=wrap;html=1;" parent="1" vertex="1">
          <mxGeometry x="450" y="680" width="140" height="110" as="geometry" />
        </mxCell>
        <mxCell id="-PaE_k066LT1cp-F2kjS-26" value="game_day DATE&lt;br&gt;game_time TIME&lt;br&gt;resignation_day DATE" style="align=left;strokeColor=none;fillColor=none;spacingLeft=4;fontSize=12;verticalAlign=top;resizable=0;rotatable=0;part=1;html=1;" parent="-PaE_k066LT1cp-F2kjS-25" vertex="1">
          <mxGeometry y="50" width="140" height="60" as="geometry" />
        </mxCell>
        <mxCell id="-PaE_k066LT1cp-F2kjS-27" value="killer" style="swimlane;childLayout=stackLayout;horizontal=1;startSize=40;horizontalStack=0;rounded=1;fontSize=14;fontStyle=0;strokeWidth=2;resizeParent=0;resizeLast=1;shadow=0;dashed=0;align=center;arcSize=4;whiteSpace=wrap;html=1;" parent="1" vertex="1">
          <mxGeometry x="790" y="725" width="160" height="70" as="geometry" />
        </mxCell>
        <mxCell id="-PaE_k066LT1cp-F2kjS-28" value="killer_id INT" style="align=left;strokeColor=none;fillColor=none;spacingLeft=4;fontSize=12;verticalAlign=top;resizable=0;rotatable=0;part=1;html=1;" parent="-PaE_k066LT1cp-F2kjS-27" vertex="1">
          <mxGeometry y="40" width="160" height="30" as="geometry" />
        </mxCell>
        <mxCell id="-PaE_k066LT1cp-F2kjS-29" value="characteristic_id INT" style="ellipse;shape=doubleEllipse;margin=3;whiteSpace=wrap;html=1;align=center;" parent="1" vertex="1">
          <mxGeometry x="950" y="810" width="110" height="60" as="geometry" />
        </mxCell>
        <mxCell id="-PaE_k066LT1cp-F2kjS-30" value="characteristic_weight&lt;br&gt;INT" style="ellipse;shape=doubleEllipse;margin=3;whiteSpace=wrap;html=1;align=center;" parent="1" vertex="1">
          <mxGeometry x="800" y="840" width="140" height="50" as="geometry" />
        </mxCell>
        <mxCell id="-PaE_k066LT1cp-F2kjS-33" value="" style="endArrow=none;html=1;rounded=0;entryX=0.5;entryY=1;entryDx=0;entryDy=0;exitX=0.5;exitY=0;exitDx=0;exitDy=0;" parent="1" source="-PaE_k066LT1cp-F2kjS-30" target="-PaE_k066LT1cp-F2kjS-28" edge="1">
          <mxGeometry relative="1" as="geometry">
            <mxPoint x="690" y="810" as="sourcePoint" />
            <mxPoint x="850" y="810" as="targetPoint" />
          </mxGeometry>
        </mxCell>
        <mxCell id="-PaE_k066LT1cp-F2kjS-34" value="" style="endArrow=none;html=1;rounded=0;entryX=0.5;entryY=0;entryDx=0;entryDy=0;exitX=1;exitY=0.75;exitDx=0;exitDy=0;" parent="1" source="-PaE_k066LT1cp-F2kjS-28" target="-PaE_k066LT1cp-F2kjS-29" edge="1">
          <mxGeometry relative="1" as="geometry">
            <mxPoint x="690" y="810" as="sourcePoint" />
            <mxPoint x="850" y="810" as="targetPoint" />
          </mxGeometry>
        </mxCell>
        <mxCell id="-PaE_k066LT1cp-F2kjS-37" style="edgeStyle=orthogonalEdgeStyle;rounded=0;orthogonalLoop=1;jettySize=auto;html=1;exitX=0;exitY=0.5;exitDx=0;exitDy=0;entryX=1;entryY=0.5;entryDx=0;entryDy=0;" parent="1" source="-PaE_k066LT1cp-F2kjS-35" target="-PaE_k066LT1cp-F2kjS-26" edge="1">
          <mxGeometry relative="1" as="geometry" />
        </mxCell>
        <mxCell id="-PaE_k066LT1cp-F2kjS-38" style="edgeStyle=orthogonalEdgeStyle;rounded=0;orthogonalLoop=1;jettySize=auto;html=1;entryX=0;entryY=0.5;entryDx=0;entryDy=0;" parent="1" source="-PaE_k066LT1cp-F2kjS-35" target="-PaE_k066LT1cp-F2kjS-27" edge="1">
          <mxGeometry relative="1" as="geometry" />
        </mxCell>
        <mxCell id="-PaE_k066LT1cp-F2kjS-35" value="killer_pick" style="shape=rhombus;perimeter=rhombusPerimeter;whiteSpace=wrap;html=1;align=center;" parent="1" vertex="1">
          <mxGeometry x="630" y="730" width="110" height="60" as="geometry" />
        </mxCell>
        <mxCell id="-PaE_k066LT1cp-F2kjS-40" style="edgeStyle=orthogonalEdgeStyle;rounded=0;orthogonalLoop=1;jettySize=auto;html=1;exitX=0.5;exitY=0;exitDx=0;exitDy=0;entryX=0.402;entryY=1.024;entryDx=0;entryDy=0;entryPerimeter=0;" parent="1" source="-PaE_k066LT1cp-F2kjS-35" target="cdsCty-ngPJyCLLbnnnI-20" edge="1">
          <mxGeometry relative="1" as="geometry" />
        </mxCell>
        <mxCell id="-PaE_k066LT1cp-F2kjS-41" value="&lt;span style=&quot;border-bottom: 1px dotted&quot;&gt;weak_attribute&lt;/span&gt;" style="ellipse;whiteSpace=wrap;html=1;align=center;" parent="1" vertex="1">
          <mxGeometry x="460" y="90" width="100" height="40" as="geometry" />
        </mxCell>
        <mxCell id="-PaE_k066LT1cp-F2kjS-42" value="multivalued_attribute" style="ellipse;shape=doubleEllipse;margin=3;whiteSpace=wrap;html=1;align=center;" parent="1" vertex="1">
          <mxGeometry x="430" y="170" width="150" height="50" as="geometry" />
        </mxCell>
        <mxCell id="-PaE_k066LT1cp-F2kjS-43" value=": attribute of a weak entity" style="text;html=1;align=center;verticalAlign=middle;resizable=0;points=[];autosize=1;strokeColor=none;fillColor=none;" parent="1" vertex="1">
          <mxGeometry x="570" y="95" width="160" height="30" as="geometry" />
        </mxCell>
        <mxCell id="-PaE_k066LT1cp-F2kjS-44" value=": a multivalued attribute" style="text;html=1;align=center;verticalAlign=middle;resizable=0;points=[];autosize=1;strokeColor=none;fillColor=none;" parent="1" vertex="1">
          <mxGeometry x="580" y="180" width="150" height="30" as="geometry" />
        </mxCell>
        <mxCell id="5NwabXCWE-SLFFRBzNqV-1" value="weight INT" style="rounded=1;arcSize=10;whiteSpace=wrap;html=1;align=center;" vertex="1" parent="1">
          <mxGeometry x="900" y="1100" width="130" height="40" as="geometry" />
        </mxCell>
        <mxCell id="5NwabXCWE-SLFFRBzNqV-2" value="" style="endArrow=none;dashed=1;html=1;dashPattern=1 3;strokeWidth=2;rounded=0;entryX=0;entryY=0.5;entryDx=0;entryDy=0;exitX=0.5;exitY=1;exitDx=0;exitDy=0;" edge="1" parent="1" source="TqhwZRV8JNRU5DN2LlRJ-26" target="5NwabXCWE-SLFFRBzNqV-1">
          <mxGeometry width="50" height="50" relative="1" as="geometry">
            <mxPoint x="890" y="800" as="sourcePoint" />
            <mxPoint x="940" y="750" as="targetPoint" />
          </mxGeometry>
        </mxCell>
        <mxCell id="5NwabXCWE-SLFFRBzNqV-9" style="edgeStyle=orthogonalEdgeStyle;rounded=0;orthogonalLoop=1;jettySize=auto;html=1;exitX=1;exitY=0.5;exitDx=0;exitDy=0;entryX=0.01;entryY=0.289;entryDx=0;entryDy=0;entryPerimeter=0;" edge="1" parent="1" source="-PaE_k066LT1cp-F2kjS-4" target="cdsCty-ngPJyCLLbnnnI-20">
          <mxGeometry relative="1" as="geometry" />
        </mxCell>
        <mxCell id="5NwabXCWE-SLFFRBzNqV-12" value="" style="endArrow=none;html=1;rounded=0;entryX=1;entryY=1;entryDx=0;entryDy=0;exitX=0.5;exitY=0;exitDx=0;exitDy=0;" edge="1" parent="1" source="-PaE_k066LT1cp-F2kjS-4" target="-PaE_k066LT1cp-F2kjS-15">
          <mxGeometry relative="1" as="geometry">
            <mxPoint x="228.82" y="695" as="sourcePoint" />
            <mxPoint x="228.82" y="530" as="targetPoint" />
          </mxGeometry>
        </mxCell>
        <mxCell id="5NwabXCWE-SLFFRBzNqV-13" value="" style="endArrow=none;html=1;rounded=0;entryX=0.5;entryY=1;entryDx=0;entryDy=0;exitX=0.428;exitY=-0.06;exitDx=0;exitDy=0;exitPerimeter=0;" edge="1" parent="1" source="TqhwZRV8JNRU5DN2LlRJ-31" target="-PaE_k066LT1cp-F2kjS-4">
          <mxGeometry relative="1" as="geometry">
            <mxPoint x="310" y="840" as="sourcePoint" />
            <mxPoint x="310" y="675" as="targetPoint" />
          </mxGeometry>
        </mxCell>
        <mxCell id="5NwabXCWE-SLFFRBzNqV-14" value="" style="endArrow=none;html=1;rounded=0;entryX=1;entryY=0.5;entryDx=0;entryDy=0;exitX=0.913;exitY=1.06;exitDx=0;exitDy=0;exitPerimeter=0;" edge="1" parent="1" source="TqhwZRV8JNRU5DN2LlRJ-14" target="TqhwZRV8JNRU5DN2LlRJ-26">
          <mxGeometry relative="1" as="geometry">
            <mxPoint x="620" y="710" as="sourcePoint" />
            <mxPoint x="780" y="710" as="targetPoint" />
          </mxGeometry>
        </mxCell>
      </root>
    </mxGraphModel>
  </diagram>
</mxfile>
